# xmcd
#
# Track frame offsets: 
#        150
#        5636
#        29196
#        45482
#        66489
#        86981
#        90964
#        115395
#        137786
#        154842
#        172486
#        178334
#        199280
#        216393
#        238614
#        259072
#        272258
#        277225
#        292772
#
# Disc length: 4137 seconds
#
# Revision: 0
# Processed by: cddbd v1.5.2PL0 Copyright (c) Steve Scherf et al.
# Submitted via: ExactAudioCopyFreeDBPlugin 1.0
#
DISCID=2f102713
DTITLE=Marsha Ambrosius - Friends and Lovers (Deluxe Edition)
DYEAR=2014
DGENRE=Hip-Hop
TTITLE0=Friends and Lovers Intro
TTITLE1=So Good
TTITLE2=Night Time
TTITLE3=69
TTITLE4=Shoes 
TTITLE5=How Much More (Interlude)
TTITLE6=Stronger (feat. Dr. Dre)
TTITLE7=You and I
TTITLE8=La La La La La
TTITLE9=Cupid (Shot Me Straight Through My Heart)
TTITLE10=Kiss and Fuck (Interlude)
TTITLE11=Love
TTITLE12=Run
TTITLE13=Spend All My Time (feat. Charlie Wilson)
TTITLE14=OMG I Miss You
TTITLE15=Streets of London (feat. Skye and Lindsey Stirling)
TTITLE16=Some Things (Interlude)
TTITLE17=Every Now and Again
TTITLE18=Honey Pot
EXTD=
EXTT0=
EXTT1=
EXTT2=
EXTT3=
EXTT4=
EXTT5=
EXTT6=
EXTT7=
EXTT8=
EXTT9=
EXTT10=
EXTT11=
EXTT12=
EXTT13=
EXTT14=
EXTT15=
EXTT16=
EXTT17=
EXTT18=
PLAYORDER=
